<?xml version="1.0" encoding="UTF-8" standalone="no"?>
<svg version="1.1" xmlns="http://www.w3.org/2000/svg" xmlns:xlink="http://www.w3.org/1999/xlink" x="0px" y="0px" viewBox="0 0 1000 1000" enable-background="new 0 0 1000 1000" xml:space="preserve">
<g>
<path d="M850,219.9l-27.2,40.8C893.6,299.7,941,370.3,941,451c0,80.7-47.4,151.3-118.2,190.3l27.2,40.8c84.7-48.3,140-134.9,140-231.1C990,354.8,934.7,268.3,850,219.9z"/>
<path d="M891.9,451c0-67-39.6-126.3-98-154.2V132.5c0-18.8-10.8-36-27.8-44.2c-6.7-3.3-14-4.8-21.2-4.8c-11,0-21.8,3.7-30.6,10.7L482.8,279.5H181.5C86.9,279.5,10,356.5,10,451c0,94.5,76.9,171.5,171.5,171.5h27.9l113.2,264.3c5.3,12.3,15.5,22.1,28.2,26.7c5.4,2,11.2,3,16.9,3c7.5,0,15-1.7,21.9-5.2l98-49c23.2-11.6,33.4-39.3,23.1-63.1L435,622.5h47.8l231.6,185.3c8.9,7.1,19.7,10.7,30.6,10.7c7.2,0,14.5-1.6,21.2-4.8c17-8.2,27.8-25.3,27.8-44.2V605.2C852.4,577.3,891.9,518,891.9,451z M206,573.5h-24.5C113.8,573.5,59,518.7,59,451c0-67.6,54.8-122.5,122.5-122.5H206V573.5z M465.7,818.5l-98,49l-105-245h119L465.7,818.5z M745,769.5l-245-196H255v-245h245l245-196V769.5z M793.9,548.5V353.5c29.6,22.4,49,57.6,49,97.5S823.6,526.1,793.9,548.5z"/></g>
</svg>