<?xml version="1.0" encoding="UTF-8" standalone="no"?>
<svg version="1.1" xmlns="http://www.w3.org/2000/svg" xmlns:xlink="http://www.w3.org/1999/xlink" x="0px" y="0px" viewBox="0 0 1000 1000" enable-background="new 0 0 1000 1000" xml:space="preserve">
<g><g><g><rect x="622.5" y="520.4" width="245" height="40.8"/><rect x="500" y="397.9" width="367.5" height="40.8"/><path d="M908.3,71.3H91.7C46.7,71.3,10,108,10,152.9v530.8c0,44.9,36.7,81.7,81.7,81.7h81.7v163.3l102.1-102.1l102.1,102.1V765.4h530.8c44.9,0,81.7-36.8,81.7-81.7V152.9C990,108,953.2,71.3,908.3,71.3z M336.7,830.7l-61.3-61.3l-61.3,61.3V671.5c20.4,8.2,40.8,12.3,61.3,12.3c20.4,0,40.8-4.1,61.3-12.3V830.7z M275.4,642.9c-57.2,0-102.1-44.9-102.1-102.1c0-57.2,44.9-102.1,102.1-102.1c57.2,0,102.1,44.9,102.1,102.1C377.5,598,332.6,642.9,275.4,642.9z M949.2,683.7c0,24.5-16.3,40.8-40.8,40.8H377.5v-85.7c24.5-24.5,40.8-61.3,40.8-98c0-77.6-65.3-142.9-142.9-142.9c-77.6,0-142.9,65.3-142.9,142.9c0,40.8,16.3,73.5,40.8,98v85.7H91.7c-24.5,0-40.8-20.4-40.8-40.8V152.9c0-24.5,16.3-40.8,40.8-40.8h816.7c24.5,0,40.8,20.4,40.8,40.8V683.7z"/><rect x="132.5" y="275.4" width="735" height="40.8"/></g></g><g></g><g></g><g></g><g></g><g></g><g></g><g></g><g></g><g></g><g></g><g></g><g></g><g></g><g></g><g></g></g>
</svg>