<?xml version="1.0" encoding="UTF-8" standalone="no"?>
<svg version="1.1" id="Layer_1" xmlns="http://www.w3.org/2000/svg" xmlns:xlink="http://www.w3.org/1999/xlink" x="0px" y="0px"
	 width="512px" height="512px" viewBox="0 0 512 512" enable-background="new 0 0 512 512" xml:space="preserve">
<g>
	<path d="M446.813,208.875C447.625,203.313,448,197.656,448,192c0-70.563-57.438-128-128-128
		c-40.938,0-78.563,19.344-102.375,51.063C209.25,113.031,200.688,112,192,112c-61.75,0-112,50.25-112,112
		c0,1.563,0,3.094,0.063,4.625C33.813,242.375,0,285.313,0,336c0,61.75,50.25,112,112,112h272c70.563,0,128-57.406,128-128
		C512,273.344,486.313,231.188,446.813,208.875z M384,416H112c-44.188,0-80-35.813-80-80s35.813-80,80-80
		c2.438,0,4.75,0.5,7.125,0.719c-4.5-10-7.125-21.031-7.125-32.719c0-44.188,35.813-80,80-80c14.438,0,27.813,4.125,39.5,10.813
		C246,120.25,280.125,96,320,96c53,0,96,42.969,96,96c0,12.625-2.625,24.625-7.063,35.688C449.813,238.75,480,275.688,480,320
		C480,373.031,437,416,384,416z"/>
	<path d="M256,192c-53.063,0-96,42.969-96,96s42.938,96,96,96c53,0,96-42.969,96-96S309,192,256,192z M224,336v-96l80,48L224,336z"
		/>
</g>
</svg>