<?xml version="1.0" encoding="UTF-8" standalone="no"?>
<svg version="1.0" xmlns="http://www.w3.org/2000/svg"
 width="210.000000pt" height="210.000000pt" viewBox="0 0 210.000000 210.000000"
 preserveAspectRatio="xMidYMid meet">
	<g transform="translate(0.000000,210.000000) scale(0.100000,-0.100000)"
fill="#000000" stroke="none">
<path d="M922 2050 c-337 -48 -623 -253 -774 -555 -75 -149 -102 -274 -101
-455 1 -112 5 -152 27 -235 76 -291 264 -523 531 -657 392 -198 878 -109 1180
214 224 239 318 576 250 896 -83 391 -387 694 -779 778 -88 18 -253 25 -334
14z m-92 -563 c76 -40 101 -123 59 -197 -77 -136 -284 -69 -266 86 6 58 30 92
80 115 55 24 75 24 127 -4z m592 -8 c59 -42 77 -133 38 -197 -27 -44 -96 -75
-146 -66 -75 14 -133 96 -120 169 8 42 50 93 91 111 38 18 99 10 137 -17z
m-584 -609 c67 -41 90 -120 54 -189 -50 -100 -186 -106 -249 -12 -62 92 10
221 122 221 22 0 54 -9 73 -20z m568 4 c75 -36 101 -151 48 -214 -38 -45 -79
-63 -130 -57 -141 15 -182 194 -61 267 39 24 97 26 143 4z"/>
</g>
</svg>