<?xml version="1.0" encoding="UTF-8" standalone="no"?>
<svg version="1.0" xmlns="http://www.w3.org/2000/svg"
 width="1200.000000pt" height="1200.000000pt" viewBox="0 0 1200.000000 1200.000000"
 preserveAspectRatio="xMidYMid meet">
<g transform="translate(0.000000,1200.000000) scale(0.100000,-0.100000)"
fill="#000000" stroke="none">
<path d="M8796 10919 c-9 -24 -36 -102 -59 -174 -42 -125 -45 -130 -73 -132
-139 -9 -236 -24 -368 -55 -56 -13 -91 -17 -95 -10 -16 25 -111 159 -154 217
l-47 64 -38 -13 c-91 -33 -225 -92 -312 -138 -90 -48 -219 -126 -230 -138 -3
-3 -22 -16 -43 -30 -20 -14 -35 -29 -33 -35 2 -5 27 -83 55 -172 l52 -162
-119 -118 c-65 -65 -139 -141 -163 -170 l-44 -52 -160 55 c-88 29 -165 54
-172 54 -23 0 -181 -279 -249 -440 -33 -80 -86 -231 -82 -235 3 -3 167 -125
263 -196 l30 -22 -17 -86 c-10 -47 -20 -111 -23 -141 -4 -30 -8 -68 -10 -85
-2 -16 -4 -48 -4 -71 l-1 -40 -62 -19 c-35 -11 -67 -20 -73 -21 -47 -11 -200
-67 -206 -76 -4 -6 -6 -28 -4 -47 2 -20 6 -72 10 -116 13 -182 91 -542 125
-579 5 -4 88 -9 187 -10 l178 -1 63 -125 c34 -69 73 -141 87 -161 13 -20 25
-43 27 -51 2 -8 -43 -76 -99 -152 -57 -76 -103 -142 -103 -146 0 -19 131 -171
240 -280 114 -115 227 -211 286 -245 l31 -18 82 59 c44 33 107 78 139 101 31
24 63 43 70 43 8 0 40 -15 71 -34 56 -32 210 -108 241 -118 13 -4 15 -34 15
-188 l0 -184 75 -23 c66 -21 120 -35 185 -49 11 -2 58 -11 105 -19 47 -9 95
-17 107 -19 15 -3 215 -17 253 -18 46 -1 46 -1 99 160 28 86 55 164 60 171 5
8 25 16 43 16 58 3 150 15 231 31 43 9 84 13 91 11 7 -3 54 -63 104 -134 50
-71 98 -136 107 -143 14 -11 26 -10 83 10 210 71 495 212 596 294 l27 21 -54
171 -54 171 61 49 c33 27 97 86 142 132 45 45 88 82 96 82 7 0 85 -24 173 -54
147 -50 161 -53 178 -38 34 30 167 239 230 362 78 151 134 289 121 298 -39 26
-151 108 -160 117 -6 5 -36 28 -66 49 l-55 40 19 70 c27 104 47 203 54 271 4
33 10 66 14 74 5 10 116 53 195 75 6 1 42 13 82 25 l72 23 -4 146 c-2 81 -6
161 -9 177 -3 17 -7 50 -10 75 -9 79 -44 250 -63 315 l-9 30 -182 3 -181 2
-11 38 c-13 42 -13 41 -73 173 -24 52 -60 123 -79 156 l-36 60 109 148 108
148 -27 36 c-114 154 -279 330 -411 438 l-74 61 -46 -32 c-25 -17 -71 -49
-101 -72 -30 -22 -76 -55 -101 -73 l-46 -32 -55 34 c-101 65 -247 142 -338
177 -19 8 -37 17 -40 21 -3 4 -4 83 -3 176 0 94 -2 174 -5 179 -6 9 -136 50
-187 60 -11 2 -40 8 -65 13 -25 6 -63 13 -84 16 -21 3 -48 7 -60 10 -37 8
-100 14 -213 21 l-110 6 -17 -43z m124 -1780 c107 -22 229 -89 310 -171 197
-200 236 -501 97 -750 -235 -421 -858 -414 -1089 12 -51 94 -67 156 -73 273
-5 99 6 167 44 261 113 281 407 436 711 375z"/>
<path d="M4049 7986 c-2 -2 -46 -7 -96 -10 -51 -4 -103 -9 -115 -11 -13 -2
-54 -8 -93 -14 -76 -12 -116 -19 -155 -26 -14 -3 -38 -8 -55 -11 -16 -3 -32
-10 -36 -15 -3 -6 -9 -47 -13 -92 -4 -45 -8 -102 -11 -127 -2 -25 -6 -79 -10
-120 -12 -138 -15 -164 -23 -170 -4 -4 -61 -24 -127 -45 -66 -21 -124 -41
-130 -45 -5 -4 -32 -15 -60 -25 -27 -10 -116 -50 -197 -90 l-148 -72 -47 41
c-27 23 -64 55 -83 72 -19 17 -75 67 -125 110 -49 43 -92 81 -95 84 -32 33
-38 32 -115 -20 -169 -114 -331 -246 -475 -385 -90 -87 -230 -236 -230 -245 0
-3 60 -106 134 -230 74 -124 131 -227 127 -230 -5 -3 -42 -54 -83 -115 -85
-124 -179 -285 -228 -392 l-33 -72 -42 4 c-23 2 -79 6 -126 10 -46 3 -95 8
-109 10 -14 2 -59 7 -100 10 -41 3 -89 8 -107 10 -35 4 -27 18 -83 -139 -79
-222 -162 -622 -172 -826 l-3 -65 75 -32 c41 -17 93 -40 115 -49 22 -10 60
-26 85 -37 25 -11 63 -27 85 -37 22 -9 59 -26 83 -36 l42 -18 1 -100 c2 -167
21 -345 53 -503 4 -18 -16 -33 -142 -109 -81 -48 -158 -94 -172 -102 -101 -55
-115 -68 -113 -105 6 -93 144 -459 258 -682 65 -127 151 -275 160 -275 2 0
111 25 242 55 131 30 247 55 258 54 13 0 39 -26 73 -72 60 -83 136 -170 239
-277 40 -41 73 -78 73 -82 0 -5 -45 -113 -100 -241 l-99 -232 27 -23 c233
-197 535 -383 840 -517 l63 -28 22 25 c65 75 135 155 160 182 16 17 58 66 94
109 36 42 71 77 78 77 7 0 38 -9 71 -20 32 -11 67 -23 79 -25 11 -3 76 -18
144 -34 68 -17 147 -33 176 -36 l54 -7 26 -117 c103 -450 83 -397 152 -401
181 -11 646 -1 672 14 3 2 33 6 66 10 55 6 88 11 140 21 11 2 47 9 80 15 33 6
63 15 67 18 6 7 13 56 23 182 3 36 8 83 10 105 3 22 7 76 10 120 8 109 10 113
58 126 67 17 305 108 388 148 l77 37 29 -25 c25 -21 66 -57 212 -186 25 -22
51 -45 59 -52 7 -7 33 -29 57 -49 43 -34 47 -36 63 -20 10 9 22 16 26 16 12 0
237 150 326 219 123 94 209 169 349 307 l124 122 -28 48 c-15 27 -33 59 -39
71 -6 13 -14 23 -18 23 -5 0 -8 4 -8 9 0 4 -35 67 -79 139 -43 71 -81 137 -84
146 -4 9 25 57 78 128 47 62 120 172 163 245 44 73 81 131 83 129 2 -2 38 -7
79 -10 41 -4 100 -9 130 -12 104 -10 135 -13 221 -19 l86 -7 15 34 c37 79 58
130 96 238 40 112 106 332 116 387 3 16 14 73 25 128 17 90 34 198 35 233 1 7
-46 33 -104 57 -58 25 -114 49 -125 55 -11 5 -51 22 -90 38 -38 16 -88 37
-110 47 l-40 18 0 206 c0 185 -7 319 -20 406 -5 30 -2 32 221 163 l226 134 -7
31 c-3 18 -9 43 -11 57 -20 101 -95 340 -151 485 -41 106 -189 415 -198 415
-4 0 -115 -25 -246 -55 -252 -58 -269 -61 -269 -45 0 17 -150 226 -245 340
-20 25 -68 77 -106 117 l-70 72 42 98 c23 54 49 116 59 138 55 125 100 234
100 243 0 10 -161 147 -228 194 -206 145 -334 224 -504 311 l-128 65 -34 -36
c-19 -20 -85 -95 -147 -167 -62 -71 -125 -143 -139 -158 l-26 -28 -120 41
c-174 60 -335 100 -546 135 -21 3 -38 8 -38 11 0 3 -12 56 -26 117 -14 62 -27
119 -29 127 -2 8 -11 47 -20 85 -9 39 -19 81 -21 95 -10 56 -15 68 -31 75 -17
7 -457 17 -464 11z m346 -2571 c197 -33 360 -117 502 -260 121 -122 207 -276
242 -435 19 -87 22 -116 22 -200 0 -417 -261 -764 -666 -886 -76 -23 -110 -27
-220 -28 -158 -1 -209 6 -325 44 -287 96 -523 359 -591 658 -23 102 -31 244
-18 317 4 22 10 56 13 75 7 47 48 165 76 220 90 179 244 330 426 417 174 83
353 109 539 78z"/>
</g>
</svg>