<?xml version="1.0" encoding="UTF-8" standalone="no"?>
<svg version="1.1" xmlns="http://www.w3.org/2000/svg" xmlns:xlink="http://www.w3.org/1999/xlink" width="512" height="512" viewBox="0 0 512 512">
<g>
</g>
	<path d="M158.31 194.212c-8.284-122.46 182.466-34.243 171.417 23.982-10.67 56.167-45.691 65.905-69.97 100.004 0 0-16.916 50.197-11.151 70.236 18.964 66.058-78.541 125.798-103.926 48.558 0 0-12.196-52.439 36.126-88.299 19.169-24.494-15.657-53.433-22.498-154.481z" fill="#000000" />
	<path d="M211.425 73.954c3.031 21.617-7.332 40.98-23.142 43.223-15.79 2.181-31.078-13.537-34.099-35.205-3.042-21.657 7.311-40.96 23.101-43.182 15.841-2.233 31.119 13.486 34.14 35.164z" fill="#000000" />
	<path d="M270.807 95.632c-2.755 13.742-13.752 23.081-24.586 20.941-10.864-2.181-17.398-15.022-14.663-28.784 2.734-13.763 13.752-23.102 24.596-20.941 10.844 2.212 17.387 15.073 14.654 28.785z" fill="#000000" />
	<path d="M315.024 120.873c-4.199 11.203-14.776 17.644-23.634 14.295-8.817-3.318-12.606-15.043-8.407-26.276 4.199-11.203 14.756-17.603 23.603-14.285 8.827 3.349 12.606 15.084 8.438 26.266z" fill="#000000" />
	<path d="M348.938 155.453c-5.56 9.022-15.841 12.78-22.958 8.376-7.096-4.382-8.366-15.216-2.796-24.258 5.55-9.063 15.831-12.779 22.938-8.376 7.106 4.423 8.397 15.237 2.816 24.258z" fill="#000000" />
	<path d="M366.745 191.959c-3.512 6.584-10.578 9.656-15.78 6.881-5.212-2.765-6.564-10.363-3.051-16.937 3.502-6.584 10.567-9.677 15.769-6.922 5.202 2.816 6.564 10.373 3.062 16.978z" fill="#000000" />
</svg>