<?xml version="1.0" encoding="UTF-8" standalone="no"?>
<svg version="1.1" xmlns="http://www.w3.org/2000/svg" xmlns:xlink="http://www.w3.org/1999/xlink" x="0px" y="0px" viewBox="0 0 1000 1000" enable-background="new 0 0 1000 1000" xml:space="preserve">
<g><path d="M345.7,470.7H134.8C66,470.7,10,414.7,10,345.9V135.1C10,66.2,66,10.2,134.8,10.2h210.8c68.8,0,124.8,56,124.8,124.8v210.8C470.5,414.7,414.5,470.7,345.7,470.7z M134.8,75.5c-32.8,0-59.5,26.7-59.5,59.5v210.8c0,32.8,26.7,59.5,59.5,59.5h210.8c32.8,0,59.5-26.7,59.5-59.5V135.1c0-32.8-26.7-59.5-59.5-59.5L134.8,75.5L134.8,75.5z"/><path d="M865.2,470.7H654.3c-68.8,0-124.8-56-124.8-124.8V135.1c0-68.8,56-124.8,124.8-124.8h210.8c68.8,0,124.8,56,124.8,124.8v210.8C990,414.7,934,470.7,865.2,470.7z M654.3,75.5c-32.8,0-59.5,26.7-59.5,59.5v210.8c0,32.8,26.7,59.5,59.5,59.5h210.8c32.8,0,59.5-26.7,59.5-59.5V135.1c0-32.8-26.7-59.5-59.5-59.5L654.3,75.5L654.3,75.5z"/><path d="M345.7,989.8H134.8C66,989.8,10,933.8,10,864.9V654.1c0-68.8,56-124.8,124.8-124.8h210.8c68.8,0,124.8,56,124.8,124.8v210.8C470.5,933.8,414.5,989.8,345.7,989.8z M134.8,594.6c-32.8,0-59.5,26.7-59.5,59.5v210.8c0,32.8,26.7,59.5,59.5,59.5h210.8c32.8,0,59.5-26.7,59.5-59.5V654.1c0-32.8-26.7-59.5-59.5-59.5L134.8,594.6L134.8,594.6z"/><path d="M865.2,989.8H654.3c-68.8,0-124.8-56-124.8-124.8V654.1c0-68.8,56-124.8,124.8-124.8h210.8c68.8,0,124.8,56,124.8,124.8v210.8C990,933.8,934,989.8,865.2,989.8z M654.3,594.6c-32.8,0-59.5,26.7-59.5,59.5v210.8c0,32.8,26.7,59.5,59.5,59.5h210.8c32.8,0,59.5-26.7,59.5-59.5V654.1c0-32.8-26.7-59.5-59.5-59.5L654.3,594.6L654.3,594.6z"/></g>
</svg>