<?xml version="1.0" encoding="utf-8"?>
<!-- Generator: Adobe Illustrator 19.1.0, SVG Export Plug-In . SVG Version: 6.00 Build 0)  -->
<!DOCTYPE svg PUBLIC "-//W3C//DTD SVG 1.1//EN" "http://www.w3.org/Graphics/SVG/1.1/DTD/svg11.dtd">
<svg version="1.1" id="Layer_1" xmlns="http://www.w3.org/2000/svg" xmlns:xlink="http://www.w3.org/1999/xlink" x="0px" y="0px"
	 viewBox="0 0 200 200" style="enable-background:new 0 0 200 200;" xml:space="preserve">
<style type="text/css">
	.st0{fill:#006BB5;}
	.st1{fill:#FFFFFF;}
	.st2{fill-rule:evenodd;clip-rule:evenodd;fill:#FFFFFF;}
</style>
<g>
	<path class="st0" d="M199,183.4c0,8.6-7,15.6-15.6,15.6H16.6C8,199,1,192,1,183.4V16.6C1,8,8,1,16.6,1h166.8C192,1,199,8,199,16.6
		V183.4z"/>
	<path class="st1" d="M99.5,160.3c0,7.1-6,12.8-13.5,12.8c-7.4,0-13.5-5.7-13.5-12.8c0-7.1,6-12.8,13.5-12.8
		C93.4,147.4,99.5,153.2,99.5,160.3z"/>
	<path class="st1" d="M154.8,160.3c0,7.1-6,12.8-13.5,12.8c-7.4,0-13.5-5.7-13.5-12.8c0-7.1,6-12.8,13.5-12.8
		C148.7,147.4,154.8,153.2,154.8,160.3z"/>
	<path class="st1" d="M169.4,74.3l-26.1,46.9c-0.7,1.2-2,2-3.4,2H85.4c-1.5,0-2.8-0.8-3.5-2L46.4,56h-0.1H28.2H11
		c-2.1,0-3.9,1.6-3.9,3.7v7.2c0,2,1.7,3.7,3.9,3.7h23.3c1.5,0,2.8,0.8,3.5,2l34.1,64.6l0,0c0.6,1.3,2,2.2,3.5,2.2l74.3,0.1
		c1.5,0,2.8-0.8,3.5-2l32.6-59.8c1.3-2.4-0.5-5.3-3.5-5.3h-9.5C171.4,72.3,170,73.1,169.4,74.3z"/>
	<path class="st2" d="M132.6,19.8l-15.5,34.6l17.2-2.4L110,106.3l6-42.5l-12.2,1.8l6.6-43.2L132.6,19.8z"/>
</g>
</svg>